<svg xmlns="http://www.w3.org/2000/svg" viewBox="0 0 1440 320"><path fill="#0099ff" fill-opacity="1" d="M0,224L24,197.3C48,171,96,117,144,85.3C192,53,240,43,288,53.3C336,64,384,96,432,122.7C480,149,528,171,576,154.7C624,139,672,85,720,58.7C768,32,816,32,864,53.3C912,75,960,117,1008,117.3C1056,117,1104,75,1152,80C1200,85,1248,139,1296,165.3C1344,192,1392,192,1416,192L1440,192L1440,320L1416,320C1392,320,1344,320,1296,320C1248,320,1200,320,1152,320C1104,320,1056,320,1008,320C960,320,912,320,864,320C816,320,768,320,720,320C672,320,624,320,576,320C528,320,480,320,432,320C384,320,336,320,288,320C240,320,192,320,144,320C96,320,48,320,24,320L0,320Z"></path></svg>